<svg width="422" height="133" viewBox="0 0 422 133" fill="none" xmlns="http://www.w3.org/2000/svg">
<rect y="3" width="422" height="130" rx="10" fill="white"/>
<path d="M19.8659 31.144C19.3939 31.144 18.9539 31.06 18.5459 30.892C18.1379 30.724 17.7859 30.488 17.4899 30.184C17.1939 29.872 16.9739 29.504 16.8299 29.08L17.8259 28.672C17.9939 29.12 18.2579 29.468 18.6179 29.716C18.9779 29.964 19.3939 30.088 19.8659 30.088C20.2339 30.088 20.5619 30.016 20.8499 29.872C21.1379 29.728 21.3619 29.52 21.5219 29.248C21.6899 28.976 21.7739 28.648 21.7739 28.264C21.7739 27.872 21.6899 27.544 21.5219 27.28C21.3619 27.008 21.1379 26.8 20.8499 26.656C20.5619 26.512 20.2299 26.44 19.8539 26.44C19.7339 26.44 19.6019 26.448 19.4579 26.464C19.3219 26.48 19.2059 26.504 19.1099 26.536L18.8579 25.996L21.2459 23.08H17.2859V22.06H22.5779V23.044L20.2979 25.852L20.2259 25.54C20.7619 25.556 21.2339 25.68 21.6419 25.912C22.0499 26.144 22.3699 26.46 22.6019 26.86C22.8339 27.252 22.9499 27.712 22.9499 28.24C22.9499 28.784 22.8179 29.276 22.5539 29.716C22.2899 30.156 21.9259 30.504 21.4619 30.76C20.9979 31.016 20.4659 31.144 19.8659 31.144Z" fill="#141522"/>
<path d="M17.0562 65V64.184L19.5282 61.508C20.0162 60.988 20.4042 60.56 20.6922 60.224C20.9882 59.888 21.2042 59.588 21.3402 59.324C21.4762 59.06 21.5442 58.78 21.5442 58.484C21.5442 57.996 21.4002 57.62 21.1122 57.356C20.8242 57.092 20.4442 56.96 19.9722 56.96C19.4922 56.96 19.0842 57.1 18.7482 57.38C18.4122 57.652 18.1802 58.04 18.0522 58.544L16.9842 58.268C17.0882 57.788 17.2802 57.372 17.5602 57.02C17.8402 56.668 18.1882 56.396 18.6042 56.204C19.0202 56.012 19.4762 55.916 19.9722 55.916C20.5162 55.916 20.9922 56.024 21.4002 56.24C21.8162 56.448 22.1402 56.74 22.3722 57.116C22.6122 57.492 22.7322 57.928 22.7322 58.424C22.7322 58.752 22.6642 59.072 22.5282 59.384C22.3922 59.696 22.1922 60.028 21.9282 60.38C21.6642 60.724 21.3202 61.124 20.8962 61.58L18.6882 63.98H22.9242V65H17.0562Z" fill="#141522"/>
<path d="M19.845 99V91.08H18.153V90.06H21.033V99H19.845Z" fill="#141522"/>
<line x1="44.5" y1="19" x2="44.5" y2="99" stroke="#F5F5F7"/>
<path d="M44.068 119.144C43.5 119.144 42.98 119.04 42.508 118.832C42.036 118.616 41.636 118.324 41.308 117.956C40.98 117.588 40.744 117.176 40.6 116.72L41.62 116.3C41.836 116.876 42.156 117.32 42.58 117.632C43.012 117.936 43.516 118.088 44.092 118.088C44.444 118.088 44.752 118.032 45.016 117.92C45.28 117.808 45.484 117.652 45.628 117.452C45.78 117.244 45.856 117.004 45.856 116.732C45.856 116.356 45.748 116.06 45.532 115.844C45.324 115.62 45.016 115.452 44.608 115.34L42.964 114.836C42.316 114.636 41.82 114.32 41.476 113.888C41.132 113.456 40.96 112.96 40.96 112.4C40.96 111.912 41.076 111.484 41.308 111.116C41.548 110.74 41.876 110.448 42.292 110.24C42.716 110.024 43.196 109.916 43.732 109.916C44.268 109.916 44.752 110.012 45.184 110.204C45.624 110.396 45.996 110.656 46.3 110.984C46.604 111.304 46.828 111.672 46.972 112.088L45.964 112.508C45.772 112.004 45.484 111.624 45.1 111.368C44.716 111.104 44.264 110.972 43.744 110.972C43.424 110.972 43.14 111.028 42.892 111.14C42.652 111.244 42.464 111.4 42.328 111.608C42.2 111.808 42.136 112.048 42.136 112.328C42.136 112.656 42.24 112.948 42.448 113.204C42.656 113.46 42.972 113.656 43.396 113.792L44.896 114.236C45.6 114.452 46.132 114.76 46.492 115.16C46.852 115.56 47.032 116.056 47.032 116.648C47.032 117.136 46.904 117.568 46.648 117.944C46.4 118.32 46.052 118.616 45.604 118.832C45.164 119.04 44.652 119.144 44.068 119.144Z" fill="#141522"/>
<line x1="105" y1="19" x2="105" y2="99" stroke="#F5F5F7"/>
<path d="M99.996 119V110.06H101.076L104.424 114.824H103.872L107.196 110.06H108.276V119H107.088V111.548L107.508 111.68L104.184 116.36H104.088L100.8 111.68L101.172 111.548V119H99.996Z" fill="#141522"/>
<line x1="165" y1="19" x2="165" y2="99" stroke="#F5F5F7"/>
<path d="M163.556 119V111.14H161.132V110.06H167.132V111.14H164.744V119H163.556Z" fill="#141522"/>
<line x1="225.5" y1="19" x2="225.5" y2="99" stroke="#F5F5F7"/>
<path d="M221.64 119L219.132 110.06H220.368L222.468 117.932H222.18L224.364 110.06H225.6L227.772 117.932H227.472L229.584 110.06H230.82L228.312 119H227.004L224.82 111.164H225.132L222.948 119H221.64Z" fill="#141522"/>
<line x1="286" y1="19" x2="286" y2="99" stroke="#F5F5F7"/>
<path d="M284.556 119V111.14H282.132V110.06H288.132V111.14H285.744V119H284.556Z" fill="#141522"/>
<line x1="344" y1="19" x2="344" y2="99" stroke="#F5F5F7"/>
<path d="M340.996 119V110.06H346.66V111.14H342.172V114.032H346.24V115.112H342.172V119H340.996Z" fill="#141522"/>
<line x1="402.5" y1="19" x2="402.5" y2="99" stroke="#F5F5F7"/>
<path d="M402.068 119.144C401.5 119.144 400.98 119.04 400.508 118.832C400.036 118.616 399.636 118.324 399.308 117.956C398.98 117.588 398.744 117.176 398.6 116.72L399.62 116.3C399.836 116.876 400.156 117.32 400.58 117.632C401.012 117.936 401.516 118.088 402.092 118.088C402.444 118.088 402.752 118.032 403.016 117.92C403.28 117.808 403.484 117.652 403.628 117.452C403.78 117.244 403.856 117.004 403.856 116.732C403.856 116.356 403.748 116.06 403.532 115.844C403.324 115.62 403.016 115.452 402.608 115.34L400.964 114.836C400.316 114.636 399.82 114.32 399.476 113.888C399.132 113.456 398.96 112.96 398.96 112.4C398.96 111.912 399.076 111.484 399.308 111.116C399.548 110.74 399.876 110.448 400.292 110.24C400.716 110.024 401.196 109.916 401.732 109.916C402.268 109.916 402.752 110.012 403.184 110.204C403.624 110.396 403.996 110.656 404.3 110.984C404.604 111.304 404.828 111.672 404.972 112.088L403.964 112.508C403.772 112.004 403.484 111.624 403.1 111.368C402.716 111.104 402.264 110.972 401.744 110.972C401.424 110.972 401.14 111.028 400.892 111.14C400.652 111.244 400.464 111.4 400.328 111.608C400.2 111.808 400.136 112.048 400.136 112.328C400.136 112.656 400.24 112.948 400.448 113.204C400.656 113.46 400.972 113.656 401.396 113.792L402.896 114.236C403.6 114.452 404.132 114.76 404.492 115.16C404.852 115.56 405.032 116.056 405.032 116.648C405.032 117.136 404.904 117.568 404.648 117.944C404.4 118.32 404.052 118.616 403.604 118.832C403.164 119.04 402.652 119.144 402.068 119.144Z" fill="#141522"/>
<path d="M44 108L88.5556 84.1899C97.1341 79.6056 107.403 79.4648 116.104 83.8121L146.901 99.1997C157.595 104.543 170.44 103.027 179.596 95.3418L208.389 71.1759C218.437 62.7419 232.801 61.8153 243.85 68.8884L271.53 86.6082C280.517 92.3609 291.882 92.9076 301.379 88.0439L335.692 70.4713C341.273 67.6133 347.609 66.5756 353.81 67.5042L402 74.7203" stroke="#EBEDF7" stroke-width="3" stroke-linecap="round"/>
<path d="M44 99.5323L87.075 71.9568C97.8587 65.0533 111.835 65.755 121.874 73.7037L141.703 89.4056C154.678 99.6798 173.522 97.5059 183.816 84.5474L204.794 58.1414C215.599 44.5411 235.66 42.9306 248.496 54.633L270.418 74.6201C279.45 82.8537 292.572 84.7861 303.593 79.5055L335.3 64.3134C340.601 61.7734 346.532 60.8468 352.355 61.6486L402 68.4839" stroke="#141522" stroke-width="3" stroke-linecap="round"/>
<g filter="url(#filter0_d_2_2552)">
<circle cx="104" cy="67" r="6" fill="white" stroke="#546FFF" stroke-width="4"/>
</g>
<g filter="url(#filter1_d_2_2552)">
<path d="M102.457 45.1293C103.257 46.0992 104.743 46.0992 105.543 45.1293L109.961 39.7726C111.037 38.4681 110.109 36.5 108.418 36.5H99.5818C97.8909 36.5 96.963 38.4681 98.0389 39.7726L102.457 45.1293Z" fill="#141522"/>
</g>
<rect x="62" width="84" height="40" rx="10" fill="#141522"/>
<path d="M85.0836 26V24.81L87.9396 21.758C88.4996 21.1607 88.9383 20.68 89.2556 20.316C89.5823 19.9427 89.8156 19.616 89.9556 19.336C90.1049 19.056 90.1796 18.762 90.1796 18.454C90.1796 17.95 90.0256 17.5627 89.7176 17.292C89.4096 17.012 89.0129 16.872 88.5276 16.872C88.0236 16.872 87.5896 17.0167 87.2256 17.306C86.8616 17.586 86.6096 17.9967 86.4696 18.538L85.0136 18.118C85.1256 17.5673 85.3496 17.0913 85.6856 16.69C86.0216 16.2793 86.4323 15.962 86.9176 15.738C87.4123 15.514 87.9443 15.402 88.5136 15.402C89.1763 15.402 89.7549 15.528 90.2496 15.78C90.7443 16.0227 91.1269 16.3633 91.3976 16.802C91.6776 17.2407 91.8176 17.7493 91.8176 18.328C91.8176 18.7107 91.7429 19.084 91.5936 19.448C91.4536 19.8027 91.2343 20.1807 90.9356 20.582C90.6369 20.974 90.2543 21.4173 89.7876 21.912L87.2676 24.6H92.0136V26H85.0836ZM97.564 26V17.04H94.792V15.57H101.932V17.04H99.202V26H97.564ZM104.167 26.168C103.654 26.168 103.201 26.0793 102.809 25.902C102.427 25.7153 102.128 25.4633 101.913 25.146C101.699 24.8193 101.591 24.4367 101.591 23.998C101.591 23.5873 101.68 23.2187 101.857 22.892C102.044 22.5653 102.329 22.29 102.711 22.066C103.094 21.842 103.575 21.6833 104.153 21.59L106.785 21.156V22.402L104.461 22.808C104.041 22.8827 103.733 23.018 103.537 23.214C103.341 23.4007 103.243 23.6433 103.243 23.942C103.243 24.2313 103.351 24.4693 103.565 24.656C103.789 24.8333 104.074 24.922 104.419 24.922C104.849 24.922 105.222 24.8287 105.539 24.642C105.866 24.4553 106.118 24.208 106.295 23.9C106.473 23.5827 106.561 23.2327 106.561 22.85V20.904C106.561 20.5307 106.421 20.2273 106.141 19.994C105.871 19.7513 105.507 19.63 105.049 19.63C104.629 19.63 104.261 19.742 103.943 19.966C103.635 20.1807 103.407 20.4607 103.257 20.806L101.941 20.148C102.081 19.7747 102.31 19.448 102.627 19.168C102.945 18.8787 103.313 18.6547 103.733 18.496C104.163 18.3373 104.615 18.258 105.091 18.258C105.689 18.258 106.216 18.37 106.673 18.594C107.14 18.818 107.499 19.1307 107.751 19.532C108.013 19.924 108.143 20.3813 108.143 20.904V26H106.631V24.628L106.953 24.67C106.776 24.978 106.547 25.244 106.267 25.468C105.997 25.692 105.684 25.8647 105.329 25.986C104.984 26.1073 104.597 26.168 104.167 26.168ZM112.513 26.168C111.738 26.168 111.057 25.9767 110.469 25.594C109.89 25.2113 109.484 24.698 109.251 24.054L110.469 23.48C110.674 23.9093 110.954 24.25 111.309 24.502C111.673 24.754 112.074 24.88 112.513 24.88C112.886 24.88 113.19 24.796 113.423 24.628C113.656 24.46 113.773 24.2313 113.773 23.942C113.773 23.7553 113.722 23.606 113.619 23.494C113.516 23.3727 113.386 23.2747 113.227 23.2C113.078 23.1253 112.924 23.0693 112.765 23.032L111.575 22.696C110.922 22.5093 110.432 22.2293 110.105 21.856C109.788 21.4733 109.629 21.03 109.629 20.526C109.629 20.0687 109.746 19.672 109.979 19.336C110.212 18.9907 110.534 18.7247 110.945 18.538C111.356 18.3513 111.818 18.258 112.331 18.258C113.022 18.258 113.638 18.4307 114.179 18.776C114.72 19.112 115.103 19.5833 115.327 20.19L114.109 20.764C113.96 20.4 113.722 20.1107 113.395 19.896C113.078 19.6813 112.718 19.574 112.317 19.574C111.972 19.574 111.696 19.658 111.491 19.826C111.286 19.9847 111.183 20.1947 111.183 20.456C111.183 20.6333 111.23 20.7827 111.323 20.904C111.416 21.016 111.538 21.1093 111.687 21.184C111.836 21.2493 111.99 21.3053 112.149 21.352L113.381 21.716C114.006 21.8933 114.487 22.1733 114.823 22.556C115.159 22.9293 115.327 23.3773 115.327 23.9C115.327 24.348 115.206 24.7447 114.963 25.09C114.73 25.426 114.403 25.692 113.983 25.888C113.563 26.0747 113.073 26.168 112.513 26.168ZM116.597 26V15.402H118.179V22.5L117.563 22.346L121.357 18.426H123.331L120.475 21.464L123.457 26H121.637L118.977 21.982L119.915 21.856L117.675 24.236L118.179 23.186V26H116.597Z" fill="white"/>
<defs>
<filter id="filter0_d_2_2552" x="92" y="59" width="24" height="24" filterUnits="userSpaceOnUse" color-interpolation-filters="sRGB">
<feFlood flood-opacity="0" result="BackgroundImageFix"/>
<feColorMatrix in="SourceAlpha" type="matrix" values="0 0 0 0 0 0 0 0 0 0 0 0 0 0 0 0 0 0 127 0" result="hardAlpha"/>
<feOffset dy="4"/>
<feGaussianBlur stdDeviation="2"/>
<feComposite in2="hardAlpha" operator="out"/>
<feColorMatrix type="matrix" values="0 0 0 0 0 0 0 0 0 0 0 0 0 0 0 0 0 0 0.1 0"/>
<feBlend mode="normal" in2="BackgroundImageFix" result="effect1_dropShadow_2_2552"/>
<feBlend mode="normal" in="SourceGraphic" in2="effect1_dropShadow_2_2552" result="shape"/>
</filter>
<filter id="filter1_d_2_2552" x="72.578" y="15.5" width="62.844" height="59.3568" filterUnits="userSpaceOnUse" color-interpolation-filters="sRGB">
<feFlood flood-opacity="0" result="BackgroundImageFix"/>
<feColorMatrix in="SourceAlpha" type="matrix" values="0 0 0 0 0 0 0 0 0 0 0 0 0 0 0 0 0 0 127 0" result="hardAlpha"/>
<feOffset dy="4"/>
<feGaussianBlur stdDeviation="12.5"/>
<feColorMatrix type="matrix" values="0 0 0 0 0 0 0 0 0 0 0 0 0 0 0 0 0 0 0.1 0"/>
<feBlend mode="normal" in2="BackgroundImageFix" result="effect1_dropShadow_2_2552"/>
<feBlend mode="normal" in="SourceGraphic" in2="effect1_dropShadow_2_2552" result="shape"/>
</filter>
</defs>
</svg>
